<?xml version="1.0" standalone="no"?>
<!DOCTYPE svg PUBLIC "-//W3C//DTD SVG 20010904//EN"
 "http://www.w3.org/TR/2001/REC-SVG-20010904/DTD/svg10.dtd">
<svg version="1.0" xmlns="http://www.w3.org/2000/svg"
 width="2768.000000pt" height="2917.000000pt" viewBox="0 0 2768.000000 2917.000000"
 preserveAspectRatio="xMidYMid meet">

<g transform="translate(0.000000,2917.000000) scale(0.100000,-0.100000)"
fill="#000000" stroke="none">
<path d="M9690 28874 c-25 -2 -112 -8 -195 -14 -356 -27 -577 -77 -914 -210
-312 -123 -727 -354 -931 -518 -329 -264 -760 -743 -875 -971 -23 -47 -77
-147 -120 -221 -88 -155 -158 -325 -244 -595 -106 -333 -148 -509 -166 -690
-10 -107 -14 -775 -5 -950 12 -249 27 -322 164 -790 205 -696 275 -1120 606
-3630 100 -755 145 -1078 204 -1460 8 -49 24 -119 36 -155 72 -212 145 -831
185 -1570 8 -157 17 -319 20 -360 3 -41 9 -151 15 -245 10 -164 15 -247 25
-385 22 -292 36 -572 36 -729 1 -185 1 -188 -30 -276 -35 -100 -38 -139 -16
-192 34 -80 92 -113 213 -121 116 -7 135 -23 138 -118 3 -110 -56 -511 -112
-764 -52 -229 -164 -542 -339 -945 -149 -344 -220 -546 -290 -825 -64 -252
-131 -636 -155 -885 -6 -60 -13 -134 -16 -162 -17 -155 -22 -336 -19 -678 2
-209 7 -405 10 -435 41 -379 59 -475 172 -925 200 -799 337 -1426 483 -2210
23 -121 56 -281 75 -355 36 -141 87 -464 104 -660 31 -355 49 -936 46 -1555
l-2 -500 -42 -130 c-23 -71 -51 -151 -62 -176 -16 -36 -21 -68 -21 -150 -2
-150 21 -240 82 -326 86 -123 169 -185 290 -217 69 -18 405 -4 507 22 43 11
98 23 123 27 25 4 144 41 265 82 215 72 224 74 380 88 243 22 444 20 541 -6
115 -31 263 -66 309 -73 22 -4 63 -15 90 -26 64 -25 157 -48 265 -66 47 -8
108 -19 135 -25 28 -6 244 -15 480 -19 237 -4 513 -13 615 -20 294 -21 469
-18 567 8 45 12 101 30 125 40 24 11 77 27 118 37 145 35 260 114 260 181 0
17 5 55 11 85 9 45 8 62 -6 99 -9 25 -24 69 -32 97 -13 43 -29 65 -88 120 -39
38 -92 80 -116 96 -24 15 -55 36 -69 47 -22 18 -45 21 -185 25 -162 5 -238 15
-420 59 -55 13 -143 34 -195 46 -195 45 -604 185 -719 247 -47 25 -156 82
-242 128 -86 45 -174 96 -195 113 -71 59 -202 248 -271 392 -122 254 -177 412
-203 580 -5 30 -18 109 -29 175 -11 66 -25 183 -31 260 -6 77 -13 163 -15 190
-27 285 -27 3696 0 3930 1 17 6 102 10 190 3 88 8 180 10 205 2 25 7 88 10
140 9 139 62 735 85 950 17 156 60 575 76 735 72 719 188 1189 421 1703 106
235 166 382 217 539 52 162 73 256 81 373 6 97 11 118 34 144 30 34 71 47 185
55 139 10 165 24 195 105 28 76 38 136 56 361 21 253 192 1138 271 1402 56
188 86 309 149 588 161 723 238 1190 280 1695 3 41 8 98 10 125 3 28 12 146
20 264 9 118 20 221 25 230 9 17 5 25 58 -104 56 -138 253 -443 499 -772 137
-182 220 -278 457 -527 289 -302 542 -522 746 -649 318 -198 562 -433 786
-754 98 -143 345 -472 475 -634 46 -58 118 -152 159 -209 107 -148 271 -357
399 -511 188 -225 216 -310 260 -784 9 -96 7 -438 -3 -500 -3 -16 -12 -79 -21
-138 -34 -224 -79 -375 -233 -782 -87 -231 -170 -473 -287 -840 -97 -301 -151
-447 -277 -744 -212 -500 -243 -573 -338 -806 -95 -232 -191 -449 -300 -680
-233 -491 -301 -656 -446 -1073 -191 -548 -266 -834 -383 -1467 -112 -606
-290 -1815 -387 -2625 -3 -25 -7 -56 -9 -70 -2 -14 -13 -99 -25 -190 -37 -301
-80 -553 -119 -707 -31 -122 -110 -331 -151 -403 -82 -142 -94 -167 -106 -225
-23 -104 -19 -146 18 -184 55 -56 182 -113 353 -158 97 -25 108 -26 415 -27
236 0 322 3 344 12 45 20 380 47 561 46 90 0 213 -8 282 -17 190 -26 732 -24
908 3 157 25 243 46 292 71 20 10 53 22 72 25 20 4 43 12 51 20 25 21 100 42
195 54 140 17 164 25 196 62 98 113 27 165 -366 269 -178 48 -220 56 -435 93
-117 20 -252 50 -315 70 -60 20 -117 36 -125 36 -8 0 -58 13 -110 30 -114 36
-239 56 -356 59 -142 4 -290 18 -314 31 -18 10 -21 18 -16 42 7 38 84 217 180
424 41 88 127 285 190 436 63 152 158 373 210 491 373 844 585 1509 786 2467
94 447 121 563 175 750 68 234 119 382 204 590 38 91 87 215 111 275 338 876
642 1543 944 2068 177 310 214 350 299 326 19 -5 67 -13 107 -18 78 -10 116
-35 147 -96 20 -39 61 -83 94 -101 15 -7 57 -18 94 -24 119 -19 133 -35 176
-195 54 -201 119 -255 294 -241 83 7 124 16 385 84 343 90 495 83 781 -39 225
-95 443 -160 759 -228 230 -49 443 -106 622 -165 173 -58 267 -75 393 -71 442
13 1043 422 1374 934 227 353 464 972 550 1436 36 192 42 305 31 526 -20 377
-70 673 -141 833 -22 48 -47 116 -55 150 -9 33 -32 88 -52 121 -112 185 -384
518 -573 701 -207 200 -661 491 -861 553 -121 37 -159 62 -187 125 -10 23 -38
70 -62 106 -24 36 -73 121 -108 188 -39 74 -84 145 -113 178 -137 149 -385
233 -658 221 -198 -9 -286 -45 -423 -176 -136 -130 -209 -243 -246 -383 -23
-86 -46 -143 -72 -180 -24 -34 -24 -69 1 -101 38 -48 21 -106 -55 -179 -83
-80 -245 -139 -382 -138 -62 1 -248 32 -260 43 -6 7 6 209 27 452 18 201 20
238 24 495 7 353 14 305 -178 1200 -53 245 -117 542 -142 660 -204 963 -556
2263 -745 2758 -111 289 -178 509 -255 842 -181 785 -265 1034 -479 1427 -273
499 -522 869 -851 1264 -433 518 -764 830 -1554 1460 -303 242 -419 329 -548
413 -120 79 -156 95 -242 107 -177 25 -440 218 -529 389 -63 122 -199 268
-386 413 -308 239 -817 572 -1067 698 -62 32 -142 62 -212 80 -61 16 -124 39
-139 50 -16 11 -90 54 -165 96 -553 303 -972 443 -1495 498 -139 15 -498 27
-587 19z m2580 -6450 c259 -105 470 -248 538 -363 47 -80 40 -121 -55 -314
-45 -92 -142 -280 -216 -419 -137 -256 -194 -376 -262 -548 -85 -216 -165
-488 -195 -668 -7 -41 -16 -70 -20 -65 -4 4 -29 109 -55 232 -78 373 -229 958
-347 1346 -139 456 -176 599 -164 630 6 17 68 35 121 35 64 0 117 20 150 55
54 58 115 77 300 94 138 13 137 13 205 -15z m3292 -6521 c106 -130 127 -173
92 -187 -10 -4 -25 1 -37 11 -26 24 -88 116 -121 180 -54 107 -22 105 66 -4z"/>
</g>
</svg>
