<?xml version="1.0" standalone="no"?>
<!DOCTYPE svg PUBLIC "-//W3C//DTD SVG 20010904//EN"
 "http://www.w3.org/TR/2001/REC-SVG-20010904/DTD/svg10.dtd">
<svg version="1.0" xmlns="http://www.w3.org/2000/svg"
 width="1000.000000pt" height="1000.000000pt" viewBox="0 0 1000.000000 1000.000000"
 preserveAspectRatio="xMidYMid meet">
<metadata>
Created by potrace 1.16, written by Peter Selinger 2001-2019
</metadata>
<g transform="translate(0.000000,1000.000000) scale(0.312500,-0.312500)"
fill="#000000" stroke="none">
<path d="M1896 2481 c-22 -43 -38 -125 -42 -214 -2 -50 -8 -74 -23 -93 -12
-15 -21 -33 -21 -41 0 -8 -11 -36 -24 -62 -12 -26 -28 -63 -35 -82 -16 -51
-62 -91 -96 -87 -46 5 -52 29 -24 83 13 26 31 50 39 53 24 9 30 24 30 72 0 28
-9 62 -24 90 -13 25 -34 77 -46 115 -13 39 -27 75 -32 81 -6 8 0 10 17 6 26
-5 34 11 12 25 -6 4 -18 20 -26 36 -18 34 -39 35 -51 1 -12 -30 -4 -72 19 -97
12 -15 17 -50 21 -159 5 -132 6 -142 28 -156 12 -8 22 -20 22 -27 0 -6 -10
-17 -22 -22 -13 -6 -42 -27 -64 -47 -41 -35 -41 -36 -46 -116 -5 -87 -15 -106
-71 -135 -18 -9 -43 -23 -57 -30 -22 -13 -26 -12 -32 3 -4 9 -7 31 -7 49 -1
25 -5 31 -16 27 -11 -5 -15 -22 -15 -64 0 -69 -7 -90 -29 -90 -11 0 -4 -12 22
-36 46 -43 57 -69 57 -141 0 -49 -2 -54 -17 -48 -75 33 -277 41 -430 19 -53
-8 -106 -51 -105 -84 2 -62 21 -134 38 -147 14 -10 20 -11 23 -2 12 36 60 62
97 53 20 -5 24 -13 26 -48 l1 -41 4 38 c2 20 9 37 15 37 7 0 9 -21 4 -65 -5
-53 -3 -72 11 -95 9 -17 21 -30 26 -30 5 0 45 -16 90 -36 169 -73 156 -65 158
-109 0 -22 3 -34 6 -27 2 6 13 12 23 12 10 0 22 5 25 10 12 20 25 9 25 -21 0
-22 11 -44 36 -71 29 -33 35 -46 32 -76 -3 -34 -1 -37 26 -40 23 -3 28 0 23
12 -4 9 -1 39 5 66 10 43 9 56 -5 85 -12 26 -14 41 -7 61 6 14 10 38 10 53 0
24 -6 30 -42 40 -39 12 -43 12 -56 -8 -8 -12 -20 -21 -28 -21 -18 0 -84 67
-84 85 0 8 -4 15 -9 15 -10 0 -25 50 -17 57 3 3 36 -4 75 -16 74 -23 144 -27
185 -11 22 8 36 2 103 -45 150 -105 179 -123 243 -155 36 -17 76 -37 90 -44
14 -8 49 -19 78 -25 51 -11 122 -53 122 -73 0 -21 -59 -68 -87 -69 -20 -1 -22
-3 -8 -6 46 -10 51 -13 35 -23 -10 -7 7 -10 53 -10 38 0 66 4 63 9 -3 5 7 11
23 14 37 8 45 30 20 60 -10 14 -19 29 -19 34 0 5 -20 24 -45 42 -25 18 -45 37
-45 43 0 24 -92 118 -123 126 -32 8 -50 33 -78 112 -7 19 -48 70 -91 114 -43
43 -106 120 -139 170 -53 81 -59 95 -54 126 7 37 36 137 61 205 18 53 18 103
-1 150 -16 37 -16 37 20 76 40 44 93 151 102 203 4 23 12 38 25 42 29 9 40 49
43 164 3 107 18 190 35 190 6 0 10 4 10 8 0 4 -10 8 -23 8 -16 0 -28 -11 -41
-35z"/>
<path d="M1155 2091 c-3 -5 -28 -17 -56 -26 -35 -12 -53 -24 -59 -41 -5 -13
-14 -24 -20 -24 -5 0 -10 -21 -10 -46 l0 -45 50 2 c57 3 66 -2 52 -28 -17 -31
-3 -72 30 -89 28 -15 31 -14 52 5 21 20 46 28 46 15 0 -3 -5 -15 -11 -26 -9
-17 -4 -15 26 9 l37 31 23 -26 23 -27 13 30 c7 17 19 37 26 46 12 14 9 19 -22
40 -25 17 -41 40 -55 77 -11 29 -20 56 -20 60 -1 12 -35 49 -57 61 -26 13 -60
14 -68 2z"/>
</g>
</svg>
