<!-- icon666.com - MILLIONS vector ICONS FREE --><svg clip-rule="evenodd" fill-rule="evenodd" image-rendering="optimizeQuality" shape-rendering="geometricPrecision" text-rendering="geometricPrecision" viewBox="0 0 1707 1707" xmlns="http://www.w3.org/2000/svg"><g id="Layer_x0020_1"><path d="m1326 809 68-27c10-49 29-92 8-136-13-28 10-59 40-57l65 7c8-3 28-33 80-39 8-39 11-29 29-62 34-61-27-94-50-94-18 0-31 12-38 35-17 55-48 83-90 83-49 0-73-33-129-33-103 0-157 97-250 133l35 111c62-12 165-48 186-55 32-12 64 20 51 52-6 15-7 48-5 82zm67 60-60 24c2 37-1 71 3 113 3 28 7 58 9 92 1 17 3 52 11 65h90c-41-15-75-42-56-93 20-55 10-167 3-201zm96 374h-1419c-42 0-55-57-18-76-72-97-49-195-48-199 18-75 140-52 181-67 135-51 224-90 317-107 23-4 237-122 248-137 42-108 138-108 170-108 94 0 91 21 189-56 63-50 121-93 223-86 46 3 69 24 106 32 12 2 21-118 129-118 82 0 184 97 119 213-25 44-15 14-27 72-8 41-51 30-55 30-47 0-39 45-113 39 5 72-33 128-19 184 2 7 22 136-3 227 39 14 94 23 95 77h74c52 0 52 80 0 80zm-217-80c-7-32-6-58-9-86-7-57-14-133-10-181-3-21-9-75-8-125-44 15-103 33-146 40-80 13-110 89-200 99-78 9-111 34-181 44-36 6-102 60-150 73-73 18-189 14-255 47-62 30-73 52-75 58-3 9 4 18 10 31zm-293-531c-68-2-130-19-157 61-8 24-63 55-124 90l27 89c58-13 85-33 165-42 42-4 77-48 128-75zm-353 191c-48 26-96 49-114 50-49 4-220 73-299 103-40 15-104 10-133 18-2 20-4 76 42 132 14 17 27 26 38 31-15-66 40-116 117-155 86-42 198-35 271-53 20-5 74-40 101-53zm596 563h-736c-53 0-53-80 0-80h736c53 0 53 80 0 80z" fill="rgb(0,0,0)"></path></g></svg>