<!-- icon666.com - MILLIONS vector ICONS FREE --><svg id="Capa_1" enable-background="new 0 0 512.005 512.005" viewBox="0 0 512.005 512.005" xmlns="http://www.w3.org/2000/svg"><path d="m215.586 120c33.084 0 60-26.916 60-60s-26.916-60-60-60-60 26.916-60 60 26.916 60 60 60zm0-80c11.028 0 20 8.972 20 20s-8.972 20-20 20-20-8.972-20-20 8.972-20 20-20zm199.572 119c0 11.046-8.954 20-20 20h-138.34l-27.38 99.315c-2.445 8.869-10.495 14.689-19.27 14.689-1.76 0-3.548-.233-5.327-.725-10.648-2.936-16.901-13.947-13.965-24.596l24.45-88.683h-29.146c-9.007 0-16.944 6.071-19.303 14.764l-29.286 108.955c-1.656 6.106-.411 12.443 3.404 17.432s9.606 7.85 15.886 7.85h108.469c16.078 0 30.761 7.43 40.285 20.383 9.523 12.954 12.235 29.185 7.439 44.531l-32.828 105.052c-2.674 8.557-10.568 14.039-19.084 14.039-1.976.001-3.985-.295-5.971-.915-10.543-3.295-16.419-14.513-13.124-25.056l32.828-105.052c1.313-4.202-.368-7.384-1.487-8.906-1.12-1.522-3.654-4.076-8.057-4.076h-108.468c-18.841 0-36.211-8.583-47.658-23.548-11.447-14.966-15.183-33.978-10.25-52.161l29.286-108.955c7.087-26.124 30.899-44.337 57.919-44.337h208.977c11.046 0 20.001 8.954 20.001 20z"></path></svg>